:SAMPLES-PER-SECOND 30
:FULLY-SPECIFIED
:DEGREES
468
root  1.35453 39.8994 -38.0839 -1.62236 -35.9614 2.95628
RightUpLeg  4.07209 -12.6663 -11.9818
RightLeg  20.2794 -3.80344 -1.78084
RightFoot  -8.12065 -0.543734 17.1303
RightToes  -5.82094e-011 -1.98785e-016 -5.10186e-018
Spine  12.1111 1.36084 -7.97174
Spine1  6.37163 -1.10744 3.59981
HEad  -14.1082 26.0407 -15.1822
LeftShoulder1  1.59781 -2.05202 -22.4421
LeftArm  -19.4306 19.9328 -52.5374
LeftForeArm  124.376 -81.5663 -67.0008
LeftHand  -0.560897 0.26241 12.7354
RightShoulder  2.9772 5.21839 28.1841
RightArm  5.5864 -25.5556 39.7066
RightForeArm  13.3499 28.9701 5.55416
RightHand  -1.77475 7.86768 -15.781
LeftUpLeg  -0.044907 5.26011 -0.866473
LeftLeg  10.2001 22.726 3.19769
LeftFoot  -7.57093 0.259528 -6.53034
LeftToes  -8.4584e-011 5.90861e-011 8.40072e-012
469
root  1.37571 40.085 -38.3468 -1.92214 -36.2878 3.16895
RightUpLeg  7.63192 -12.7634 -11.8333
RightLeg  13.1473 -4.08892 -1.28242
RightFoot  -9.07279 -0.374154 15.7021
RightToes  -5.82094e-011 -1.98785e-016 -5.10186e-018
Spine  11.3928 1.39292 -5.67922
Spine1  6.10271 -0.115769 2.04532
HEad  -14.0244 24.943 -14.6129
LeftShoulder1  1.58169 -1.88781 -23.0596
LeftArm  -19.1437 19.9203 -52.4614
LeftForeArm  100.501 -78.0034 -38.9992
LeftHand  -0.394911 0.398754 9.21125
RightShoulder  3.06435 5.48603 28.1339
RightArm  6.41663 -25.3866 40.0849
RightForeArm  13.9009 27.9362 5.28112
RightHand  -1.83731 8.17959 -15.9657
LeftUpLeg  1.18801 4.28116 -0.613025
LeftLeg  7.12163 24.1825 1.46879
LeftFoot  -5.86226 0.31595 -5.8553
LeftToes  -8.4584e-011 5.90861e-011 8.40072e-012
470
root  1.4171 40.2241 -38.6755 -1.13579 -36.7111 2.50553
RightUpLeg  8.79614 -11.37 -9.94187
RightLeg  8.41821 -6.93345 -1.76945
RightFoot  -8.33095 -0.464395 15.5829
RightToes  -5.82094e-011 -1.98785e-016 -5.10186e-018
Spine  10.3412 1.30712 -2.7368
Spine1  6.00314 0.82752 0.173262
HEad  -14.6428 24.1231 -15.0123
LeftShoulder1  1.55475 -1.61342 -24.1458
LeftArm  -19.3771 20.4008 -52.5676
LeftForeArm  93.3912 -73.5214 -26.1239
LeftHand  -0.188202 0.656769 4.50269
RightShoulder  3.03055 5.46486 27.8275
RightArm  7.34202 -24.9582 40.5082
RightForeArm  13.5909 27.9021 5.29075
RightHand  -1.69701 7.40975 -15.6139
LeftUpLeg  0.825145 4.03426 0.119275
LeftLeg  5.88289 24.9163 1.06615
LeftFoot  -4.61594 0.352961 -5.53355
LeftToes  -8.4584e-011 5.90861e-011 8.40072e-012
471
root  1.45798 40.3339 -39.0952 -0.102256 -37.2872 1.51061
RightUpLeg  8.6249 -10.4458 -7.65985
RightLeg  5.85521 -8.84455 -2.43159
RightFoot  -6.73716 -0.601026 13.6938
RightToes  -5.82094e-011 -1.98785e-016 -5.10186e-018
Spine  9.85311 1.13256 0.367193
Spine1  5.69105 1.69719 -2.15134
HEad  -15.5494 23.4337 -15.0934
LeftShoulder1  1.55694 -1.56446 -24.5024
LeftArm  -19.9003 21.3968 -52.7939
LeftForeArm  92.4816 -69.1459 -19.4851
LeftHand  0.0301398 1.17222 -1.0512
RightShoulder  3.1228 5.70488 27.9536
RightArm  7.22773 -24.6156 40.4045
RightForeArm  14.9346 28.7599 5.41621
RightHand  -1.48217 7.04669 -14.1065
LeftUpLeg  -0.0420951 4.16361 1.17991
LeftLeg  5.44277 25.345 1.14639
LeftFoot  -3.48144 0.392366 -5.40005
LeftToes  -8.4584e-011 5.90861e-011 8.40072e-012
472
root  1.48044 40.3982 -39.5537 0.566811 -37.7137 1.15327
RightUpLeg  7.59779 -9.94298 -6.43074
RightLeg  5.37162 -9.1247 -2.75041
RightFoot  -6.28726 -0.630501 13.2503
RightToes  -5.82094e-011 -1.98785e-016 -5.10186e-018
Spine  9.58089 1.07394 1.70937
Spine1  5.29678 2.03767 -2.99789
HEad  -16.6612 23.7025 -15.1761
LeftShoulder1  1.57207 -1.56662 -24.8016
LeftArm  -20.8265 22.9387 -53.0668
LeftForeArm  92.5394 -65.2792 -15.6418
LeftHand  0.215245 1.31961 -6.32547
RightShoulder  3.18187 5.99076 27.537
RightArm  6.83408 -24.5563 40.492
RightForeArm  16.038 30.2839 5.71694
RightHand  -1.49246 7.26102 -13.9626
LeftUpLeg  -0.975274 4.22053 1.80663
LeftLeg  5.06096 25.6643 1.11454
LeftFoot  -2.36727 0.449126 -5.54199
LeftToes  -8.4584e-011 5.90861e-011 8.40072e-012
473
root  1.48026 40.4225 -40.0356 0.368393 -37.7553 1.26146
RightUpLeg  6.82434 -9.76003 -5.93603
RightLeg  5.99824 -9.04386 -2.85545
RightFoot  -6.49418 -0.584997 12.7209
RightToes  -5.82094e-011 -1.98785e-016 -5.10186e-018
Spine  9.85451 1.01537 1.62194
Spine1  5.21969 1.95614 -2.88926
HEad  -17.8132 23.8223 -14.9641
LeftShoulder1  1.57218 -1.56716 -24.8005
LeftArm  -21.4237 24.946 -53.2564
LeftForeArm  92.1062 -63.1889 -14.0906
LeftHand  0.3924 0.949649 -10.542
RightShoulder  3.15848 6.03457 27.1224
RightArm  5.99694 -24.3209 40.6726
RightForeArm  17.0258 32.3087 6.1599
RightHand  -1.46303 6.93428 -14.0418
LeftUpLeg  -1.2835 4.29077 2.18438
LeftLeg  4.60269 25.6286 0.907502
LeftFoot  -1.3422 0.490584 -5.5144
LeftToes  -8.4584e-011 5.90861e-011 8.40072e-012
474
root  1.47796 40.436 -40.5541 0.353339 -36.7435 1.28213
RightUpLeg  6.14192 -9.70895 -5.29062
RightLeg  6.46487 -10.0788 -2.80337
RightFoot  -6.69939 -0.541383 12.1915
RightToes  -5.82094e-011 -1.98785e-016 -5.10186e-018
Spine  10.4084 0.594997 1.1948
Spine1  4.75011 1.3083 -2.23704
HEad  -19.0467 23.723 -14.7589
LeftShoulder1  1.59009 -1.64311 -24.6865
LeftArm  -21.3738 27.2718 -53.0882
LeftForeArm  90.3072 -62.8574 -13.9492
LeftHand  0.539421 0.689514 -13.4218
RightShoulder  3.0665 5.85414 26.767
RightArm  5.31156 -24.2162 40.6633
RightForeArm  18.0276 34.6401 6.70639
RightHand  -1.48953 7.06344 -14.1472
LeftUpLeg  -1.9781 4.23062 2.55386
LeftLeg  4.21239 24.7262 0.803576
LeftFoot  -0.27671 0.527511 -5.4289
LeftToes  -8.4584e-011 5.90861e-011 8.40072e-012
475
root  1.45929 40.4346 -41.1273 0.662978 -34.5751 0.946809
RightUpLeg  5.58918 -9.19611 -3.79295
RightLeg  6.5967 -13.135 -3.2325
RightFoot  -6.75118 -0.515983 11.6747
RightToes  -5.82094e-011 -1.98785e-016 -5.10186e-018
Spine  11.1544 0.0520561 0.342901
Spine1  4.05218 0.212705 -0.530924
HEad  -19.527 23.435 -14.0003
LeftShoulder1  1.62987 -1.80114 -24.5106
LeftArm  -21.0994 29.054 -52.9632
LeftForeArm  87.9391 -63.2058 -14.2944
LeftHand  0.73146 -0.497932 -14.4248
RightShoulder  2.98596 5.61288 26.7521
RightArm  4.39857 -24.3818 40.1334
RightForeArm  18.6662 36.9686 7.30619
RightHand  -1.508 7.05109 -14.3263
LeftUpLeg  -3.23262 4.1559 3.13735
LeftLeg  4.24134 22.7382 0.992923
LeftFoot  0.721823 0.55017 -5.24786
LeftToes  -8.4584e-011 5.90861e-011 8.40072e-012
476
root  1.37574 40.4258 -41.5169 -0.240676 -34.8854 1.30422
RightUpLeg  5.83961 -9.12719 -3.64367
RightLeg  6.66987 -13.1364 -3.2974
RightFoot  -7.30171 -0.431445 10.7928
RightToes  -5.82094e-011 -1.98785e-016 -5.10186e-018
Spine  10.6554 0.611139 0.349136
Spine1  5.42116 0.87863 -0.788689
HEad  -19.5755 22.7364 -13.5943
LeftShoulder1  1.70335 -2.08701 -24.2435
LeftArm  -20.7812 29.2033 -53.2105
LeftForeArm  86.0406 -62.6331 -13.9808
LeftHand  0.738512 -1.21821 -12.8802
RightShoulder  2.96978 5.53136 26.8732
RightArm  3.43744 -24.8796 39.561
RightForeArm  18.0966 38.4013 7.75612
RightHand  -1.61458 7.04538 -15.318
LeftUpLeg  -2.45364 4.21435 3.35071
LeftLeg  3.32056 23.0521 0.583051
LeftFoot  1.48625 0.565924 -5.11228
LeftToes  -8.4584e-011 5.90861e-011 8.40072e-012
477
root  1.31939 40.3854 -41.9843 -0.325519 -33.3287 1.30509
RightUpLeg  5.45002 -8.72142 -2.72136
RightLeg  7.03191 -15.2288 -3.73336
RightFoot  -7.81772 -0.369732 10.2642
RightToes  -5.82094e-011 -1.98785e-016 -5.10186e-018
Spine  10.7619 0.592362 -0.0119143
Spine1  5.2827 0.589606 0.096481
HEad  -19.0447 21.7325 -12.7325
LeftShoulder1  1.72203 -2.199 -23.9588
LeftArm  -20.159 28.5621 -53.4949
LeftForeArm  85.2514 -62.037 -13.6137
LeftHand  0.744773 -2.29232 -11.0589
RightShoulder  2.96838 5.5207 26.8976
RightArm  3.00982 -25.3201 39.0954
RightForeArm  17.317 38.4701 7.82783
RightHand  -1.65888 6.77206 -16.0559
LeftUpLeg  -3.40199 4.37549 3.73416
LeftLeg  3.7487 21.2835 0.646554
LeftFoot  2.03182 0.593016 -5.16257
LeftToes  -8.4584e-011 5.90861e-011 8.40072e-012
478
root  1.29427 40.3171 -42.437 -0.149448 -31.3336 1.1745
RightUpLeg  4.77603 -8.24804 -1.65229
RightLeg  7.62055 -17.7556 -4.34482
RightFoot  -8.37513 -0.315341 9.95204
RightToes  -5.82094e-011 -1.98785e-016 -5.10186e-018
Spine  10.9111 0.357275 0.0814893
Spine1  4.95125 0.199037 0.702763
HEad  -18.1708 21.0535 -11.5923
LeftShoulder1  1.70729 -2.18025 -23.7931
LeftArm  -18.9979 27.2432 -53.455
LeftForeArm  84.1881 -61.3785 -13.2375
LeftHand  0.566436 -2.56778 -8.1108
RightShoulder  2.96672 5.46721 27.0826
RightArm  3.23368 -25.2385 38.5807
RightForeArm  17.4598 37.4328 7.51492
RightHand  -1.67995 6.9555 -16.0243
LeftUpLeg  -4.99546 4.46617 3.9914
LeftLeg  4.82611 19.119 1.0871
LeftFoot  2.3485 0.601383 -5.12763
LeftToes  -8.4584e-011 5.90861e-011 8.40072e-012
479
root  1.26996 40.2366 -42.8811 -0.325259 -29.498 1.16027
RightUpLeg  4.38606 -7.81235 -0.743096
RightLeg  8.18791 -20.277 -5.04475
RightFoot  -9.02867 -0.256428 9.62947
RightToes  -5.82094e-011 -1.98785e-016 -5.10186e-018
Spine  11.4136 0.34449 -0.0224206
Spine1  4.63998 -0.0271824 1.4759
HEad  -17.3673 20.1929 -10.7375
LeftShoulder1  1.76901 -2.44357 -23.4851
LeftArm  -18.4988 25.775 -53.7713
LeftForeArm  81.6776 -60.433 -12.7687
LeftHand  0.314688 -2.20011 -4.5385
RightShoulder  2.95023 5.39371 27.1743
RightArm  3.8024 -24.9325 38.3311
RightForeArm  16.541 35.9192 7.1432
RightHand  -1.63842 6.63938 -16.032
LeftUpLeg  -6.27953 4.89175 4.17304
LeftLeg  5.92729 16.8315 1.3318
LeftFoot  2.62623 0.605802 -5.07435
LeftToes  -8.4584e-011 5.90861e-011 8.40072e-012
